<svg width="24" height="24" viewBox="0 0 24 24" fill="none" xmlns="http://www.w3.org/2000/svg">
<path d="M19.8399 7.26484L11.9999 13.0348L4.15986 7.26484M3.23486 5.35484C2.96965 5.35484 2.71529 5.4602 2.52776 5.64774C2.34022 5.83527 2.23486 6.08963 2.23486 6.35484V17.6598C2.23486 17.9251 2.34022 18.1794 2.52776 18.367C2.71529 18.5545 2.96965 18.6598 3.23486 18.6598H20.7649C21.0301 18.6598 21.2844 18.5545 21.472 18.367C21.6595 18.1794 21.7649 17.9251 21.7649 17.6598V6.33984C21.7649 6.07463 21.6595 5.82027 21.472 5.63274C21.2844 5.4452 21.0301 5.33984 20.7649 5.33984H3.23486V5.35484Z" stroke="#E85300" stroke-linecap="round" stroke-linejoin="round"/>
</svg>
