<svg width="24" height="24" viewBox="0 0 24 24" fill="none" xmlns="http://www.w3.org/2000/svg">
<path d="M9.65412 6.2335C9.43939 5.51813 9.29191 4.78428 9.21362 4.0415C9.13512 3.301 8.48862 2.75 7.74412 2.75H4.29012C3.40162 2.75 2.71762 3.5175 2.79562 4.402C3.58312 13.3165 10.6841 20.417 19.5986 21.205C20.4836 21.283 21.2506 20.6015 21.2506 19.713V16.633C21.2506 15.509 20.6996 14.865 19.9591 14.7865C19.2163 14.7084 18.4825 14.5611 17.7671 14.3465C17.3429 14.2206 16.8926 14.2118 16.4639 14.3213C16.0351 14.4307 15.644 14.6542 15.3321 14.968L13.8536 16.4465C11.1873 15.002 8.99861 12.8133 7.55412 10.147L9.03262 8.6685C9.34652 8.35663 9.57011 7.96556 9.67962 7.53683C9.78914 7.1081 9.78 6.65771 9.65412 6.2335Z" stroke="#E85300" stroke-linecap="round" stroke-linejoin="round"/>
</svg>
