<svg width="24" height="24" viewBox="0 0 24 24" fill="none" xmlns="http://www.w3.org/2000/svg">
<path d="M20.1849 10.435C20.1849 16.437 11.9999 21.75 11.9999 21.75C11.9999 21.75 3.81494 16.4365 3.81494 10.435C3.81494 5.915 7.47894 2.25 11.9999 2.25C16.5209 2.25 20.1849 5.915 20.1849 10.435Z" stroke="#E85300" stroke-linecap="round" stroke-linejoin="round"/>
<path d="M11.9998 4.36035C15.3548 4.36035 18.0748 7.08035 18.0748 10.4354C18.0748 14.8904 11.9998 18.8339 11.9998 18.8339C11.9998 18.8339 5.9248 14.8904 5.9248 10.4359C5.9248 7.08085 8.6448 4.36035 11.9998 4.36035Z" stroke="#E85300" stroke-linecap="round" stroke-linejoin="round"/>
<path d="M15.9652 10.4352C15.9652 13.3427 12.0002 15.9162 12.0002 15.9162C12.0002 15.9162 8.03516 13.3427 8.03516 10.4357C8.03516 9.38412 8.4529 8.37561 9.19648 7.63202C9.94006 6.88844 10.9486 6.4707 12.0002 6.4707C13.0517 6.4707 14.0603 6.88844 14.8038 7.63202C15.5474 8.37561 15.9652 9.38362 15.9652 10.4352Z" stroke="#E85300" stroke-linecap="round" stroke-linejoin="round"/>
</svg>
