<svg width="211" height="16" viewBox="0 0 211 16" fill="none" xmlns="http://www.w3.org/2000/svg">
<path d="M210.707 8.70709C211.098 8.31656 211.098 7.6834 210.707 7.29287L204.343 0.928914C203.953 0.53839 203.319 0.53839 202.929 0.928914C202.538 1.31944 202.538 1.9526 202.929 2.34313L208.586 7.99998L202.929 13.6568C202.538 14.0474 202.538 14.6805 202.929 15.0711C203.319 15.4616 203.953 15.4616 204.343 15.071L210.707 8.70709ZM8.74228e-08 9L1 9L1 7L-8.74228e-08 7L8.74228e-08 9ZM5 9L7 9L7 7L5 7L5 9ZM11 9L13 9L13 7L11 7L11 9ZM17 9L19 9L19 7L17 7L17 9ZM23 9L25 9L25 7L23 7L23 9ZM29 9L31 9L31 7L29 7L29 9ZM35 9L37 9L37 7L35 7L35 9ZM41 9L43 9L43 7L41 7L41 9ZM47 9L49 9L49 7L47 7L47 9ZM53 9L55 9L55 7L53 7L53 9ZM59 8.99999L61 8.99999L61 6.99999L59 6.99999L59 8.99999ZM65 8.99999L67 8.99999L67 6.99999L65 6.99999L65 8.99999ZM71 8.99999L73 8.99999L73 6.99999L71 6.99999L71 8.99999ZM77 8.99999L79 8.99999L79 6.99999L77 6.99999L77 8.99999ZM83 8.99999L85 8.99999L85 6.99999L83 6.99999L83 8.99999ZM89 8.99999L91 8.99999L91 6.99999L89 6.99999L89 8.99999ZM95 8.99999L97 8.99999L97 6.99999L95 6.99999L95 8.99999ZM101 8.99999L103 8.99999L103 6.99999L101 6.99999L101 8.99999ZM107 8.99999L109 8.99999L109 6.99999L107 6.99999L107 8.99999ZM113 8.99999L115 8.99999L115 6.99999L113 6.99999L113 8.99999ZM119 8.99999L121 8.99999L121 6.99999L119 6.99999L119 8.99999ZM125 8.99999L127 8.99999L127 6.99999L125 6.99999L125 8.99999ZM131 8.99999L133 8.99999L133 6.99999L131 6.99999L131 8.99999ZM137 8.99999L139 8.99999L139 6.99999L137 6.99999L137 8.99999ZM143 8.99999L145 8.99999L145 6.99999L143 6.99999L143 8.99999ZM149 8.99999L151 8.99999L151 6.99999L149 6.99999L149 8.99999ZM155 8.99999L157 8.99999L157 6.99999L155 6.99999L155 8.99999ZM161 8.99999L163 8.99999L163 6.99999L161 6.99999L161 8.99999ZM167 8.99999L169 8.99999L169 6.99999L167 6.99999L167 8.99999ZM173 8.99998L175 8.99998L175 6.99998L173 6.99998L173 8.99998ZM179 8.99998L181 8.99998L181 6.99998L179 6.99998L179 8.99998ZM185 8.99998L187 8.99998L187 6.99998L185 6.99998L185 8.99998ZM191 8.99998L193 8.99998L193 6.99998L191 6.99998L191 8.99998ZM197 8.99998L199 8.99998L199 6.99998L197 6.99998L197 8.99998ZM203 8.99998L205 8.99998L205 6.99998L203 6.99998L203 8.99998ZM209 8.99998L210 8.99998L210 6.99998L209 6.99998L209 8.99998ZM210.707 8.70709C211.098 8.31656 211.098 7.6834 210.707 7.29287L204.343 0.928914C203.953 0.53839 203.319 0.53839 202.929 0.928914C202.538 1.31944 202.538 1.9526 202.929 2.34313L208.586 7.99998L202.929 13.6568C202.538 14.0474 202.538 14.6805 202.929 15.0711C203.319 15.4616 203.953 15.4616 204.343 15.071L210.707 8.70709ZM8.74228e-08 9L1 9L1 7L-8.74228e-08 7L8.74228e-08 9ZM5 9L7 9L7 7L5 7L5 9ZM11 9L13 9L13 7L11 7L11 9ZM17 9L19 9L19 7L17 7L17 9ZM23 9L25 9L25 7L23 7L23 9ZM29 9L31 9L31 7L29 7L29 9ZM35 9L37 9L37 7L35 7L35 9ZM41 9L43 9L43 7L41 7L41 9ZM47 9L49 9L49 7L47 7L47 9ZM53 9L55 9L55 7L53 7L53 9ZM59 8.99999L61 8.99999L61 6.99999L59 6.99999L59 8.99999ZM65 8.99999L67 8.99999L67 6.99999L65 6.99999L65 8.99999ZM71 8.99999L73 8.99999L73 6.99999L71 6.99999L71 8.99999ZM77 8.99999L79 8.99999L79 6.99999L77 6.99999L77 8.99999ZM83 8.99999L85 8.99999L85 6.99999L83 6.99999L83 8.99999ZM89 8.99999L91 8.99999L91 6.99999L89 6.99999L89 8.99999ZM95 8.99999L97 8.99999L97 6.99999L95 6.99999L95 8.99999ZM101 8.99999L103 8.99999L103 6.99999L101 6.99999L101 8.99999ZM107 8.99999L109 8.99999L109 6.99999L107 6.99999L107 8.99999ZM113 8.99999L115 8.99999L115 6.99999L113 6.99999L113 8.99999ZM119 8.99999L121 8.99999L121 6.99999L119 6.99999L119 8.99999ZM125 8.99999L127 8.99999L127 6.99999L125 6.99999L125 8.99999ZM131 8.99999L133 8.99999L133 6.99999L131 6.99999L131 8.99999ZM137 8.99999L139 8.99999L139 6.99999L137 6.99999L137 8.99999ZM143 8.99999L145 8.99999L145 6.99999L143 6.99999L143 8.99999ZM149 8.99999L151 8.99999L151 6.99999L149 6.99999L149 8.99999ZM155 8.99999L157 8.99999L157 6.99999L155 6.99999L155 8.99999ZM161 8.99999L163 8.99999L163 6.99999L161 6.99999L161 8.99999ZM167 8.99999L169 8.99999L169 6.99999L167 6.99999L167 8.99999ZM173 8.99998L175 8.99998L175 6.99998L173 6.99998L173 8.99998ZM179 8.99998L181 8.99998L181 6.99998L179 6.99998L179 8.99998ZM185 8.99998L187 8.99998L187 6.99998L185 6.99998L185 8.99998ZM191 8.99998L193 8.99998L193 6.99998L191 6.99998L191 8.99998ZM197 8.99998L199 8.99998L199 6.99998L197 6.99998L197 8.99998ZM203 8.99998L205 8.99998L205 6.99998L203 6.99998L203 8.99998ZM209 8.99998L210 8.99998L210 6.99998L209 6.99998L209 8.99998Z" fill="white"/>
</svg>
