<svg width="32" height="32" viewBox="0 0 32 32" fill="none" xmlns="http://www.w3.org/2000/svg">
<rect width="32" height="32" rx="16" fill="#FFFBFA"/>
<path d="M7 7H9.65625L10.3807 9.72727M21.875 19H12.8438L12.1193 16.2727M10.3807 9.72727H24L21.875 16.2727H12.1193M10.3807 9.72727L12.1193 16.2727M13.9062 21.7273C12.8438 21.7273 12.3125 22.2727 12.3125 23.3636C12.3125 24.4545 12.8438 25 13.9062 25C14.9688 25 15.5 24.4545 15.5 23.3636C15.5 22.2727 14.9688 21.7273 13.9062 21.7273ZM21.3438 21.7273C20.2812 21.7273 19.75 22.2727 19.75 23.3636C19.75 24.4545 20.2812 25 21.3438 25C22.4062 25 22.9375 24.4545 22.9375 23.3636C22.9375 22.2727 22.4062 21.7273 21.3438 21.7273Z" stroke="#E85300" stroke-linecap="round" stroke-linejoin="round"/>
</svg>
