<svg width="95" height="95" viewBox="0 0 95 95" fill="none" xmlns="http://www.w3.org/2000/svg">
<path d="M48.4052 48.9057C47.7616 50.8334 46.0802 52.241 44.3819 53.1809M50.2157 45.0902C51.096 42.8657 51.7078 39.5326 51.0896 36.0533M30.5328 23C25.0611 23 33.0138 23 30.5328 23ZM30.5328 23C21.4836 23 13 29.5467 13 41.2746C13 55.9344 28.8921 56.3361 33.9213 56.1352L35.1283 62.3607L40.9621 54.5287C41.8243 54.3278 43.1079 53.886 44.3819 53.1809M30.5328 23C45.8033 23 50.2011 31.0516 51.0896 36.0533M44.3819 53.1809C44.5831 54.902 45.6694 58.8262 48.4052 60.7541M51.0896 36.0533C52.2736 34.9153 56.5726 32.6393 64.2974 32.6393C73.9533 32.6393 82 40.2705 82 50.5123C82 60.7541 72.7463 66.1762 67.516 66.1762C66.5504 66.1762 62.9563 66.1762 61.2799 66.1762V72L54.6414 65.3729C53.5015 64.9044 51.0204 63.6459 50.2157 62.3607M28.691 36.0533C28.9592 35.3839 30.0589 34.0451 32.312 34.0451C35.1283 34.0451 35.7318 36.8566 35.1283 38.0615C34.6785 38.9596 31.7085 40.6721 31.7085 41.2746C31.7085 41.7566 31.7085 42.9481 31.7085 43.4836M55.2449 42.8811H58.6647M61.2799 42.8811H67.516M55.2449 47.9016H74.1545M55.2449 51.5164H74.1545M55.2449 55.332H74.1545M55.2449 58.9467H64.2974" stroke="#E85300" stroke-linecap="round" stroke-linejoin="round"/>
<circle cx="32" cy="47" r="1" fill="#E85300"/>
</svg>
