<svg width="365" height="194" viewBox="0 0 365 194" fill="none" xmlns="http://www.w3.org/2000/svg">
<path d="M301.575 70.8799C295.804 84.1894 289.09 96.9999 280.71 108.812C272.831 119.903 263.619 130.052 253.353 138.98C232.599 157.059 207.628 169.87 181.381 177.855C168.118 181.904 154.301 185.286 140.428 186.396C127.61 187.394 114.625 186.562 102.139 183.456C78.1116 177.523 56.3035 163.048 44.7613 140.7C37.9914 127.556 34.7173 112.583 35.7162 97.8317C36.937 79.5311 43.9289 62.1732 51.4757 45.7027C53.2514 41.8762 55.0272 38.0497 56.7475 34.1677C57.2469 33.0586 55.7486 33.4468 55.4156 34.1677C47.3694 50.361 39.6561 67.2752 35.8827 85.0767C32.4422 101.159 33.2745 117.63 38.9901 133.102C43.374 145.081 50.6433 155.895 60.0769 164.435C69.5104 172.975 80.3312 178.964 92.0954 183.013C103.86 187.061 117.233 189.113 130.107 189.113C144.035 189.113 157.742 186.507 171.171 183.013C198.361 175.97 224.498 164.158 246.75 146.855C269.002 129.553 287.147 106.871 298.912 81.1393C300.465 77.7565 301.908 74.3182 303.184 70.8244C303.684 69.5489 302.075 69.9926 301.686 70.8244L301.575 70.8799Z" fill="white"/>
<path d="M49.8666 45.7028C63.9059 59.6778 73.7279 77.1466 81.5522 95.2254C83.7163 100.216 85.714 105.263 87.6007 110.31L89.7649 108.479C72.951 97.7209 55.5822 83.1914 49.9221 63.2271C48.2573 57.3487 47.8134 51.193 48.6458 45.1483C48.8677 43.4846 46.9255 44.7046 46.5371 45.4256C38.3244 60.2879 29.5568 76.2593 15.018 85.8533C10.8562 88.6261 6.25043 90.6225 1.42268 91.898L2.25502 92.7299C4.9186 84.3559 8.96951 76.3702 14.6851 69.66C20.0678 63.338 26.8377 58.3469 34.3845 54.7977C38.9348 52.6349 43.7625 51.1376 48.6458 49.8621C49.8111 49.5848 51.1429 46.8674 49.3116 47.3111C31.3879 51.4703 15.7394 62.3952 6.47233 78.3667C3.75326 83.0804 1.64465 88.0715 0.0353928 93.229C-0.131081 93.7835 0.31282 94.2272 0.867729 94.0608C19.1799 89.347 31.5544 74.2074 40.9879 58.7351C43.6515 54.354 46.1487 49.8621 48.5903 45.3701L46.4816 45.6474C45.1498 56.3505 47.3695 66.8317 52.6412 76.2039C57.9128 85.576 65.2932 93.229 73.3949 99.9392C77.9452 103.71 82.773 107.204 87.7672 110.42C88.7105 111.03 90.2643 109.589 89.9313 108.59C83.2169 90.0125 74.7267 71.4346 62.5741 55.685C59.3001 51.4148 55.6932 47.3665 51.5868 43.8728C50.8099 43.2073 49.2007 44.871 49.8666 45.5919L49.8666 45.7028Z" fill="white"/>
<path d="M33.5522 115.633C32.9973 134.045 28.2805 153.676 13.3534 165.766L14.6852 166.043C13.6864 155.728 15.5176 146.023 20.5118 136.929C25.2841 128.333 31.499 120.68 36.3822 112.14L34.1626 112.417C31.1106 124.229 25.7834 135.209 21.5106 146.633C20.9002 148.297 23.0089 147.743 23.5083 146.633C28.2806 135.265 33.3858 123.785 36.5488 111.807C36.9927 110.088 34.7175 111.419 34.3291 112.084C29.3349 120.846 22.8424 128.721 18.1256 137.649C13.4089 146.578 11.5776 156.726 12.632 167.041C12.6875 167.762 13.5199 167.651 13.9638 167.319C29.6123 154.619 35.2724 134.322 35.2724 114.801C35.2724 113.748 33.6077 114.857 33.6077 115.633L33.5522 115.633Z" fill="white"/>
<path d="M36.7707 112.639C35.3835 122.51 43.0413 130.828 50.1996 136.54C59.1892 143.75 69.9546 149.184 80.9973 152.567C85.7696 154.009 90.8193 155.229 95.8135 155.007C96.5904 155.007 98.0332 153.843 97.5893 152.955C93.261 143.805 85.9916 135.819 78.6667 128.943C70.454 121.29 60.743 113.859 49.8112 110.698C44.7615 109.256 39.3233 108.757 34.3291 110.587C33.8297 110.753 32.1095 112.139 32.9974 112.805C37.6586 116.188 42.2644 119.682 46.7592 123.286C51.254 126.891 55.5823 130.717 60.2991 133.989C61.076 134.488 62.5742 133.047 61.9083 132.381C57.8574 128.333 53.3071 124.784 48.8678 121.234C44.4285 117.685 39.7673 114.136 35.106 110.753L33.7743 112.971C43.1523 109.644 53.4736 114.358 61.3534 119.238C71.0089 125.227 79.61 133.268 86.7684 142.03C89.9869 145.968 93.0389 150.127 95.2031 154.73L96.9789 152.678C92.7615 152.844 88.5442 151.957 84.4933 150.848C79.2216 149.406 74.1164 147.41 69.2332 145.025C59.4667 140.367 49.6448 134.211 43.0413 125.504C40.1557 121.678 38.047 117.075 38.3245 112.195C38.3245 111.308 36.8817 112.195 36.8262 112.749L36.7707 112.639Z" fill="white"/>
<path d="M110.13 185.896C118.898 185.73 127.444 181.793 134.768 177.19C142.87 172.088 150.084 165.655 156.576 158.667C159.961 155.007 163.235 151.181 166.232 147.243C166.62 146.744 166.731 145.968 165.954 145.801C156.521 144.193 146.921 145.191 138.32 149.573C129.719 153.954 123.448 160.387 118.232 167.873C115.124 172.365 112.461 177.19 110.241 182.125C110.019 182.68 110.186 183.456 110.963 183.235C124.225 178.854 130.163 165.156 141.094 157.558C142.26 156.782 141.982 154.896 140.484 155.95C130.052 163.215 124.059 176.913 111.518 181.127L112.239 182.236C119.231 166.653 131.05 151.403 148.752 147.964C153.968 146.966 159.407 147.022 164.678 148.075L164.678 146.689C157.686 155.506 150.028 163.825 141.15 170.701C132.271 177.578 122.116 182.569 110.741 184.344C110.13 184.455 109.131 186.007 110.13 186.007L110.13 185.896Z" fill="white"/>
<path d="M183.877 177.467C203.188 167.596 214.397 146.412 222.055 127.057C224.219 121.622 226.106 116.077 227.937 110.531C228.27 109.478 227.049 109.588 226.495 109.977C217.56 115.855 209.237 122.676 202.411 130.939C196.085 138.592 191.258 147.354 187.873 156.671C185.764 162.494 184.21 168.483 182.989 174.528C182.712 175.914 184.432 175.193 184.876 174.528C192.645 163.048 199.47 151.014 206.351 138.98C206.629 138.481 206.462 137.982 205.907 137.871C205.297 137.76 204.686 138.537 204.409 138.98C197.639 150.793 190.925 162.66 183.267 173.973L185.154 173.973C187.151 163.991 190.148 154.231 194.92 145.191C199.415 136.707 205.463 129.165 212.622 122.732C217.172 118.628 222.111 115.023 227.216 111.696L225.773 111.141C219.392 130.329 211.678 150.515 197.362 165.322C193.422 169.426 188.927 172.975 183.988 175.803C183.156 176.247 182.656 178.188 183.988 177.467L183.877 177.467Z" fill="white"/>
<path d="M186.986 180.074C194.532 188.725 206.962 191.664 217.839 193.05C230.99 194.714 244.419 194.049 257.46 192.163C263.841 191.22 270.167 190 276.382 188.17C277.048 187.948 278.546 186.673 277.769 185.841C260.068 168.261 233.931 165.433 210.458 170.313C203.966 171.644 197.584 173.585 191.425 175.97C190.759 176.247 189.372 178.244 190.814 178.299C208.738 179.297 226.162 183.789 243.864 186.396C244.974 186.562 246.583 184.177 245.029 183.956C227.383 181.072 209.903 176.802 192.035 175.803L191.425 178.133C212.512 169.925 237.76 166.875 258.902 176.469C265.117 179.297 270.722 183.179 275.55 188.004L276.937 185.675C265.506 189.002 253.52 190.666 241.644 191.22C229.048 191.83 215.897 191.331 203.855 187.227C198.195 185.342 192.868 182.514 188.595 178.354C187.873 177.634 186.209 179.297 186.875 180.074L186.986 180.074Z" fill="white"/>
<path d="M256.183 135.487C255.462 116.188 251.411 96.2789 258.736 77.6456C261.011 71.9335 264.118 66.6097 267.781 61.6187L266.005 62.0623C270.5 70.8799 271.832 81.0284 271.665 90.8442C271.499 101.492 269.501 112.306 265.506 122.177C263.453 127.224 260.9 132.048 257.515 136.318L259.346 136.097C260.179 121.068 260.955 106.039 261.788 91.0106C261.843 89.7351 259.679 91.066 259.624 92.0642C258.847 107.093 258.014 122.122 257.237 137.15C257.182 138.315 258.736 137.261 259.069 136.928C265.395 128.943 269.224 119.071 271.443 109.2C273.885 98.4972 274.606 87.2395 272.886 76.3701C271.998 70.9353 270.555 65.6115 268.003 60.6759C267.614 59.8995 266.56 60.6759 266.227 61.1196C260.068 69.4935 255.517 78.8656 253.575 89.0696C251.744 98.6081 252.132 108.368 252.854 118.018C253.298 124.118 253.853 130.218 254.463 136.318C254.574 137.372 256.183 136.263 256.128 135.487L256.183 135.487Z" fill="white"/>
<path d="M256.96 134.821C262.565 147.299 278.657 147.687 290.255 145.968C305.737 143.639 320.72 137.594 334.759 130.828C340.752 127.945 346.579 124.839 352.239 121.401C352.738 121.123 353.681 119.792 352.738 119.404C340.641 114.469 327.6 111.918 314.505 112.417C301.409 112.916 289.589 116.132 278.102 121.068C271.166 124.063 264.507 127.667 258.125 131.66C257.737 131.882 256.627 133.435 257.626 133.601C266.837 135.431 276.437 135.209 285.76 134.045C295.083 132.88 304.683 130.551 312.895 125.837C313.395 125.56 314.116 124.95 314.005 124.284C313.894 123.73 313.395 123.563 312.84 123.841C304.96 128.333 295.748 130.551 286.814 131.716C277.88 132.88 268.225 133.157 259.18 131.327L258.68 133.268C279.878 119.959 304.516 111.751 329.765 115.578C337.089 116.687 344.192 118.794 351.018 121.567L351.517 119.571C340.585 126.281 328.766 131.826 316.78 136.374C309.566 139.147 302.13 141.476 294.528 142.918C287.869 144.193 280.877 144.97 274.162 143.75C267.448 142.53 262.176 139.091 258.458 133.435C258.014 132.769 256.572 134.156 256.905 134.766L256.96 134.821Z" fill="white"/>
<path d="M302.574 68.7727C301.52 57.4041 297.857 46.4792 296.748 35.1107C296.248 29.6205 296.304 24.0194 297.524 18.6401C298.912 12.5399 301.797 6.99428 305.571 2.05866L303.85 2.5023C307.624 14.2591 308.512 26.2377 307.124 38.4935C305.737 50.7494 302.963 61.8407 301.187 73.5419L303.24 72.821C301.187 58.4023 300.133 43.8173 300.909 29.2323C300.965 27.9568 298.856 29.2877 298.801 30.2305C298.024 44.8155 299.078 59.3451 301.187 73.7638C301.353 75.0393 303.129 73.7638 303.24 73.0428C304.96 61.1752 307.846 49.4739 309.178 37.5507C310.509 25.6276 309.733 12.9281 305.904 1.11589C305.626 0.228592 304.405 1.22681 304.183 1.55956C298.412 9.04617 295.027 17.8083 294.528 27.2358C294.028 36.6634 295.971 45.1483 297.857 53.9104C299.023 59.1787 300.077 64.3916 301.131 69.66C301.298 70.3809 302.63 69.3273 302.574 68.8281L302.574 68.7727Z" fill="white"/>
<path d="M303.351 70.3808C307.735 77.5347 316.669 78.4774 324.327 77.8674C333.927 77.091 343.304 74.0409 352.183 70.3253C356.178 68.6617 360.118 66.7761 363.836 64.6133C364.28 64.3361 365.668 62.9497 364.613 62.5615C344.137 54.6312 321.607 59.0677 303.24 70.2144C302.352 70.769 302.185 72.71 303.517 71.9336C312.451 66.8316 321.94 62.8942 332.151 61.3414C342.361 59.7886 353.182 60.8978 363.059 64.7243L363.836 62.6724C356.844 66.7761 349.187 69.8817 341.473 72.2663C333.15 74.8173 323.661 77.091 315.004 75.2055C311.009 74.3737 307.346 72.4327 304.905 69.1053C304.461 68.4953 303.073 69.7708 303.406 70.3808L303.351 70.3808Z" fill="white"/>
</svg>
