<svg width="95" height="95" viewBox="0 0 95 95" fill="none" xmlns="http://www.w3.org/2000/svg">
<path d="M41.6192 73.512L34.8335 84.5954L29.6311 78.4882H19.6787L26.4644 67.1787" stroke="#E85300" stroke-linecap="round" stroke-linejoin="round"/>
<path d="M53.8335 73.7381L60.6192 84.8215L65.8215 78.7143H75.7739L68.9882 67.4048" stroke="#E85300" stroke-linecap="round" stroke-linejoin="round"/>
<path d="M49.4893 13.8429L54.5389 20.4755C55.3021 21.478 56.5452 21.9929 57.7936 21.8237L66.0542 20.7043C67.6909 20.4826 69.0891 21.8807 68.8673 23.5174L67.7479 31.778C67.5787 33.0265 68.0936 34.2695 69.0961 35.0327L75.7287 40.0823C77.0428 41.0828 77.0428 43.0601 75.7287 44.0606L69.0961 49.1102C68.0936 49.8734 67.5787 51.1164 67.7479 52.3649L68.8673 60.6255C69.0891 62.2622 67.6909 63.6603 66.0542 63.4386L57.7936 62.3192C56.5451 62.15 55.3021 62.6649 54.5389 63.6674L49.4893 70.3C48.4888 71.6141 46.5115 71.6141 45.511 70.3L40.4614 63.6674C39.6983 62.6649 38.4552 62.15 37.2067 62.3192L28.9461 63.4386C27.3094 63.6604 25.9113 62.2622 26.1331 60.6255L27.2524 52.3649C27.4216 51.1164 26.9067 49.8734 25.9043 49.1102L19.2716 44.0606C17.9575 43.0601 17.9575 41.0828 19.2716 40.0823L25.9043 35.0327C26.9067 34.2695 27.4216 33.0265 27.2524 31.778L26.1331 23.5174C25.9113 21.8807 27.3094 20.4826 28.9461 20.7043L37.2067 21.8237C38.4552 21.9929 39.6983 21.478 40.4614 20.4755L45.511 13.8429C46.5115 12.5288 48.4888 12.5288 49.4893 13.8429Z" stroke="#E85300"/>
<circle cx="47.2736" cy="42.2976" r="15.1071" stroke="#E85300"/>
</svg>
