<svg width="95" height="95" viewBox="0 0 95 95" fill="none" xmlns="http://www.w3.org/2000/svg">
<path d="M41.6189 73.512L34.8332 84.5954L29.6308 78.4882H19.6785L26.4642 67.1787" stroke="#E85300" stroke-width="2" stroke-linecap="round" stroke-linejoin="round"/>
<path d="M53.8335 73.7381L60.6192 84.8215L65.8215 78.7143H75.7739L68.9882 67.4048" stroke="#E85300" stroke-width="2" stroke-linecap="round" stroke-linejoin="round"/>
<path d="M45.9086 14.1458C46.709 13.0945 48.2908 13.0945 49.0912 14.1458L54.1408 20.7784C55.013 21.9241 56.4337 22.5125 57.8605 22.3192L66.1211 21.1998C67.4305 21.0224 68.549 22.1409 68.3716 23.4503L67.2522 31.7108C67.0588 33.1377 67.6473 34.5583 68.7929 35.4306L75.4256 40.4801C76.4769 41.2805 76.4769 42.8624 75.4256 43.6628L68.7929 48.7123C67.6473 49.5846 67.0588 51.0052 67.2522 52.4321L68.3716 60.6926C68.549 62.002 67.4305 63.1205 66.1211 62.9431L57.8605 61.8237C56.4337 61.6304 55.013 62.2188 54.1408 63.3645L49.0912 69.9971C48.2908 71.0484 46.709 71.0484 45.9086 69.9971L40.859 63.3645C39.9868 62.2188 38.5661 61.6304 37.1393 61.8237L28.8787 62.9431C27.5694 63.1205 26.4508 62.002 26.6283 60.6926L27.7477 52.4321C27.941 51.0052 27.3525 49.5846 26.2069 48.7123L19.5743 43.6628C18.5229 42.8624 18.5229 41.2805 19.5743 40.4801L26.2069 35.4306C27.3525 34.5583 27.941 33.1377 27.7477 31.7108L26.6283 23.4503C26.4508 22.1409 27.5694 21.0224 28.8787 21.1998L37.1393 22.3192C38.5661 22.5125 39.9868 21.9241 40.859 20.7784L45.9086 14.1458Z" stroke="#E85300" stroke-width="2"/>
<circle cx="47.2739" cy="42.2976" r="14.6071" stroke="#E85300" stroke-width="2"/>
</svg>
