<svg width="209" height="76" viewBox="0 0 209 76" fill="none" xmlns="http://www.w3.org/2000/svg">
<path fill-rule="evenodd" clip-rule="evenodd" d="M32.9685 3.63636C16.7468 3.63636 3.59656 16.9321 3.59656 33.3333C3.59656 34.2293 3.6358 35.1161 3.71265 35.9919C3.91439 35.9563 4.11831 35.929 4.31917 35.9077C5.16651 35.8177 6.16905 35.813 7.16838 35.8497C8.37022 35.8937 9.64845 36.001 10.7897 36.1246L10.7897 33.3333C10.7897 30.3885 11.3633 27.4726 12.4779 24.7519C13.5925 22.0313 15.2262 19.5593 17.2857 17.477C19.3452 15.3947 21.7901 13.743 24.481 12.616C27.1719 11.4891 30.0559 10.9091 32.9685 10.9091C35.881 10.9091 38.765 11.4891 41.4559 12.616C44.1468 13.743 46.5917 15.3947 48.6512 17.477C50.7107 19.5593 52.3444 22.0313 53.459 24.7519C54.5736 27.4726 55.1472 30.3885 55.1472 33.3333L55.1472 36.0015C57.2715 35.6388 60.1026 35.2353 62.2855 35.1629C62.3219 34.5578 62.3403 33.9477 62.3403 33.3333C62.3403 16.9321 49.1901 3.63636 32.9685 3.63636ZM61.8396 38.8228C59.144 38.9778 55.4446 39.6122 53.7016 39.9647C47.7513 41.1679 43.3148 45.2888 40.1701 50.1736C38.9678 52.0414 37.974 53.992 37.1736 55.8801C38.6593 54.5187 40.3399 53.1858 42.1819 51.9645C46.9424 48.8078 52.8992 46.3181 59.505 46.0794C60.5756 43.8049 61.3685 41.3711 61.8396 38.8228ZM57.3495 49.8991C52.4427 50.5178 47.936 52.4976 44.1542 55.0052C40.4201 57.4813 37.4786 60.4154 35.6252 62.9104C44.6734 62.0903 52.5397 57.1214 57.3495 49.8991ZM8.56536 49.8659C19.2997 51.0177 27.0419 57.8201 30.4414 62.9219C21.3248 62.1365 13.3961 57.1407 8.56536 49.8659ZM6.43057 46.0765C15.8605 46.3661 23.4233 50.5757 28.5081 55.2384C27.7539 53.5204 26.8429 51.7643 25.7641 50.0786C22.6237 45.1716 18.2076 41.0751 12.2993 39.9768C10.9404 39.7816 8.86835 39.5508 7.03802 39.4836C6.1092 39.4496 5.29848 39.4601 4.69471 39.5241C4.50851 39.5439 4.36147 39.5669 4.24948 39.5894C4.73076 41.8588 5.46852 44.032 6.43057 46.0765ZM4.23139 39.5035C4.24358 39.4923 4.25604 39.4803 4.26871 39.4675L4.21203 39.4102L4.23139 39.5035ZM7.78399e-10 33.3333C3.48501e-10 14.9238 14.7605 3.44844e-10 32.9685 7.7023e-10C51.1764 1.19562e-09 65.9369 14.9238 65.9369 33.3333C65.9369 51.7428 51.1764 66.6666 32.9685 66.6666C14.7605 66.6666 1.2083e-09 51.7428 7.78399e-10 33.3333ZM103.629 12.4187C103.629 9.39974 101.209 6.95239 98.2227 6.95239L98.2227 8.98818C96.8827 7.4405 95.0227 6.66667 92.643 6.66667C90.887 6.66667 89.2928 7.07144 87.8603 7.88099C86.4509 8.69055 85.3419 9.84535 84.5333 11.3454C83.7246 12.8455 83.3203 14.5836 83.3203 16.5599C83.3203 18.5361 83.7246 20.2743 84.5333 21.7744C85.3419 23.2744 86.4509 24.4292 87.8603 25.2388C89.2928 26.0483 90.887 26.4531 92.643 26.4531C95.1845 26.4531 97.1252 25.6197 98.4653 23.953L98.4653 26.1674L103.629 26.1674L103.629 12.4187ZM96.9751 20.4529C96.074 21.4053 94.9419 21.8815 93.5787 21.8815C92.1924 21.8815 91.0487 21.4053 90.1477 20.4529C89.2466 19.4767 88.7961 18.179 88.7961 16.5599C88.7961 14.9408 89.2466 13.655 90.1477 12.7026C91.0487 11.7264 92.1924 11.2383 93.5787 11.2383C94.9419 11.2383 96.074 11.7264 96.9751 12.7026C97.8761 13.655 98.3267 14.9408 98.3267 16.5599C98.3267 18.179 97.8761 19.4767 96.9751 20.4529ZM119.967 6.66667C122.278 6.66667 124.138 7.38098 125.547 8.8096C126.98 10.2382 127.696 12.3573 127.696 15.167L127.696 26.1674L122.289 26.1674L122.289 16.0241C122.289 14.5003 121.966 13.3693 121.319 12.6312C120.672 11.8692 119.736 11.4883 118.512 11.4883C117.149 11.4883 116.063 11.9288 115.254 12.8097C114.445 13.6669 114.041 14.9527 114.041 16.667L114.041 26.1674L108.635 26.1674L108.635 6.95239L111.573 6.95239C112.802 6.95239 113.798 7.95978 113.798 9.20247C114.515 8.39292 115.404 7.77385 116.467 7.34526C117.53 6.89286 118.697 6.66667 119.967 6.66667ZM149.509 8.8096C148.1 7.38098 146.24 6.66667 143.929 6.66667C142.659 6.66667 141.492 6.89286 140.429 7.34526C139.366 7.77385 138.477 8.39292 137.761 9.20247C137.761 7.95978 136.764 6.95239 135.535 6.95239L132.597 6.95239L132.597 26.1674L138.003 26.1674L138.003 16.667C138.003 14.9527 138.407 13.6669 139.216 12.8097C140.025 11.9288 141.111 11.4883 142.474 11.4883C143.698 11.4883 144.634 11.8692 145.281 12.6312C145.928 13.3693 146.251 14.5003 146.251 16.0241L146.251 26.1674L151.658 26.1674L151.658 15.167C151.658 12.3573 150.942 10.2382 149.509 8.8096ZM175.481 12.4187C175.481 9.39974 173.061 6.95239 170.075 6.95239L170.075 8.98818C168.735 7.4405 166.875 6.66667 164.495 6.66667C162.739 6.66667 161.145 7.07144 159.712 7.88099C158.303 8.69055 157.194 9.84535 156.385 11.3454C155.577 12.8455 155.172 14.5836 155.172 16.5599C155.172 18.5361 155.577 20.2743 156.385 21.7744C157.194 23.2744 158.303 24.4292 159.712 25.2388C161.145 26.0483 162.739 26.4531 164.495 26.4531C167.036 26.4531 168.977 25.6197 170.317 23.953L170.317 26.1674L175.481 26.1674L175.481 12.4187ZM168.827 20.4529C167.926 21.4053 166.794 21.8815 165.431 21.8815C164.044 21.8815 162.901 21.4053 162 20.4529C161.099 19.4767 160.648 18.179 160.648 16.5599C160.648 14.9408 161.099 13.655 162 12.7026C162.901 11.7264 164.044 11.2383 165.431 11.2383C166.794 11.2383 167.926 11.7264 168.827 12.7026C169.728 13.655 170.179 14.9408 170.179 16.5599C170.179 18.179 169.728 19.4767 168.827 20.4529ZM31.1702 27.1124C28.6686 22.4097 27.5144 18.0655 27.1168 15.5013C28.4321 15.0601 29.7918 14.7691 31.1702 14.6336L31.1702 27.1124ZM34.7667 28.002L34.7667 14.6336C36.1584 14.7704 37.5309 15.0657 38.858 15.5141C38.6459 17.3359 38.1563 19.848 37.2498 22.5118C36.6209 24.36 35.8044 26.2426 34.7667 28.002ZM40.6507 23.6949C41.4695 21.2887 41.9857 18.9795 42.2769 17.0727C43.2819 17.6608 44.2309 18.3433 45.1111 19.1115C43.9033 21.1629 42.1233 23.8071 40.0802 26.1524C39.8449 26.4226 39.6072 26.6875 39.3677 26.9458C39.8639 25.8523 40.2887 24.7587 40.6507 23.6949ZM42.7792 28.5559C44.7084 26.3412 46.4058 23.9043 47.6737 21.8473C48.4394 22.8495 49.1036 23.9283 49.6556 25.0674C48.0644 26.578 45.2252 28.6207 41.4551 29.9989C41.9097 29.5301 42.3518 29.0465 42.7792 28.5559ZM34.7667 35.0937C42.0219 34.6267 47.7025 31.416 50.9812 28.7179C51.3585 30.2232 51.5507 31.7734 51.5507 33.3333L51.5507 36.7446C45.0671 38.5391 40.3707 43.1962 37.1559 48.19C36.2541 49.5907 35.4597 51.0315 34.7667 52.4644L34.7667 35.0937ZM31.1702 35.0937L31.1702 52.4018C30.478 50.9599 29.6844 49.5106 28.7837 48.1032C25.5746 43.0888 20.8781 38.4198 14.3862 36.7212L14.3862 33.3333C14.3862 31.7734 14.5784 30.2232 14.9557 28.7179C18.2344 31.416 23.915 34.6267 31.1702 35.0937ZM25.449 30.3306C21.1963 28.9669 18.0058 26.7045 16.2813 25.0674C16.8305 23.9341 17.4908 22.8605 18.2516 21.8626C19.7873 24.2932 22.2253 27.4688 25.449 30.3306ZM27.0093 26.8523C24.1275 24.1215 22.0064 21.1725 20.8074 19.1276C21.7138 18.3344 22.6935 17.6322 23.7323 17.0306C24.22 19.5776 25.2245 23.0628 27.0093 26.8523ZM201.514 39.8646C203.752 39.8646 205.554 40.5434 206.919 41.9009C208.306 43.2585 209 45.2722 209 47.9421L209 58.3955L203.763 58.3955L203.763 48.7567C203.763 47.3086 203.45 46.2339 202.824 45.5324C202.197 44.8084 201.291 44.4464 200.105 44.4464C198.784 44.4464 197.732 44.865 196.949 45.7021C196.166 46.5167 195.774 47.7385 195.774 49.3676L195.774 58.3955L190.538 58.3955L190.538 40.1361L193.425 40.1361C194.592 40.1361 195.539 41.0934 195.539 42.2743C196.233 41.505 197.095 40.9167 198.124 40.5094C199.153 40.0795 200.284 39.8646 201.514 39.8646ZM180.942 54.0173C180.226 54.2888 179.398 54.4246 178.458 54.4246C177.272 54.4246 176.265 54.1983 175.437 53.7458C174.631 53.2933 174.038 52.6145 173.658 51.7094L187.018 49.0961C187.018 47.1955 186.593 45.5551 185.742 44.1749C184.914 42.772 183.795 41.7086 182.385 40.9846C180.976 40.2379 179.409 39.8646 177.686 39.8646C175.851 39.8646 174.195 40.2718 172.718 41.0864C171.263 41.8783 170.111 42.9983 169.26 44.4464C168.432 45.8718 168.018 47.4783 168.018 49.2658C168.018 51.0759 168.444 52.6937 169.294 54.1191C170.144 55.5446 171.353 56.6646 172.919 57.4791C174.486 58.271 176.287 58.667 178.324 58.667C181.591 58.667 184.075 57.6827 185.776 55.7143L182.99 52.6597C182.363 53.2706 181.68 53.7232 180.942 54.0173ZM174.463 45.1591C175.291 44.2993 176.366 43.8694 177.686 43.8694C178.76 43.8694 179.678 44.1522 180.438 44.7179C181.199 45.2836 181.703 46.0415 181.949 46.9918L173.154 48.7227C173.199 47.2068 173.635 46.0189 174.463 45.1591ZM159.278 28.364C162.17 28.364 164.514 30.7344 164.514 33.6585L164.514 58.3955L159.513 58.3955L159.513 56.2912C158.215 57.8751 156.335 58.667 153.873 58.667C152.173 58.667 150.629 58.2823 149.241 57.513C147.876 56.7437 146.802 55.6464 146.019 54.2209C145.235 52.7955 144.844 51.1438 144.844 49.2658C144.844 47.3878 145.235 45.7361 146.019 44.3106C146.802 42.8852 147.876 41.7878 149.241 41.0185C150.629 40.2492 152.173 39.8646 153.873 39.8646C156.178 39.8646 157.98 40.5999 159.278 42.0706L159.278 28.364ZM154.78 54.3227C156.1 54.3227 157.197 53.8702 158.069 52.9652C158.942 52.0375 159.379 50.8044 159.379 49.2658C159.379 47.7272 158.942 46.5054 158.069 45.6003C157.197 44.6726 156.1 44.2088 154.78 44.2088C153.437 44.2088 152.329 44.6726 151.457 45.6003C150.584 46.5054 150.147 47.7272 150.147 49.2658C150.147 50.8044 150.584 52.0375 151.457 52.9652C152.329 53.8702 153.437 54.3227 154.78 54.3227ZM138.92 40.5434C137.868 40.9959 137.029 41.6634 136.402 42.5458L136.402 40.1361L131.401 40.1361L131.401 58.3955L136.637 58.3955L136.637 49.7749C136.637 48.0779 137.063 46.8108 137.913 45.9737C138.763 45.1139 139.938 44.684 141.438 44.684C141.639 44.684 142.031 44.7066 142.612 44.7518L142.612 39.8646C141.225 39.8646 139.994 40.0908 138.92 40.5434ZM121.873 40.1361C124.765 40.1361 127.11 42.5065 127.11 45.4306L127.11 58.3955L122.108 58.3955L122.108 56.2912C120.81 57.8751 118.93 58.667 116.469 58.667C114.768 58.667 113.224 58.2823 111.836 57.513C110.471 56.7438 109.397 55.6464 108.614 54.2209C107.83 52.7955 107.439 51.1438 107.439 49.2658C107.439 47.3878 107.83 45.7361 108.614 44.3106C109.397 42.8852 110.471 41.7878 111.836 41.0185C113.224 40.2492 114.768 39.8646 116.469 39.8646C118.774 39.8646 120.575 40.5999 121.873 42.0706L121.873 40.1361ZM117.375 54.3228C118.695 54.3228 119.792 53.8702 120.665 52.9652C121.537 52.0375 121.974 50.8044 121.974 49.2658C121.974 47.7272 121.537 46.5054 120.665 45.6003C119.792 44.6726 118.695 44.2088 117.375 44.2088C116.032 44.2088 114.924 44.6726 114.052 45.6003C113.179 46.5054 112.743 47.7272 112.743 49.2658C112.743 50.8044 113.179 52.0375 114.052 52.9652C114.924 53.8702 116.032 54.3228 117.375 54.3228ZM103.701 45.2869L103.701 63.8337C103.701 67.781 103.393 69.4302 102.751 70.2683C102.237 71.0524 101.621 71.8094 100.928 72.4583C99.7474 73.5667 98.3355 74.4589 96.7695 75.0808C95.2035 75.7026 93.5606 76 91.8663 76C90.172 76 88.5033 75.7026 86.9374 75.0808C85.3971 74.4589 83.9852 73.5667 82.7786 72.4583C81.5977 71.3227 80.6479 69.9709 80.0061 68.511C79.8264 68.0784 79.7237 67.6458 79.7237 67.2132C79.7237 65.3478 81.5207 63.8337 83.5744 63.8337L85.4484 63.8337C85.4484 64.4556 85.5768 65.0774 85.8335 65.6722C86.0902 66.294 86.501 66.8888 87.0657 67.4295C87.6562 67.9703 88.3493 68.4299 89.1964 68.7543C90.0179 69.0787 90.9421 69.241 91.8663 69.241C92.7904 69.241 93.6889 69.0787 94.5361 68.7543C95.3576 68.4299 96.0764 67.9703 96.6411 67.4295C97.2059 66.8888 97.6167 66.294 97.899 65.6722C98.1557 65.0774 98.2841 64.4556 98.2841 63.8337L98.2841 56.2095C96.8979 57.8587 94.9468 58.6698 92.431 58.6698C90.7367 58.6698 89.1964 58.2913 87.7589 57.5073C86.3726 56.6962 85.243 55.5607 84.4216 54.1278C83.6001 52.6948 83.1893 51.0456 83.1893 49.1531C83.1893 47.2606 83.6001 45.6114 84.4216 44.1784C85.243 42.7185 86.3726 41.61 87.7589 40.826C89.1964 40.0419 90.7367 39.6364 92.431 39.6364C95.1265 39.6364 97.1546 40.5826 98.5665 42.4481L98.5665 39.9338C101.365 39.9338 103.649 42.313 103.701 45.2869ZM93.5092 53.9926C94.9212 53.9926 96.0764 53.56 96.9749 52.6678C97.899 51.7756 98.3611 50.586 98.3611 49.1531C98.3611 47.7202 97.899 46.5576 96.9749 45.6654C96.0764 44.7732 94.9212 44.3136 93.5092 44.3136C92.0973 44.3136 90.9164 44.7732 89.9923 45.6654C89.0938 46.5576 88.6317 47.7202 88.6317 49.1531C88.6317 50.586 89.0938 51.7756 89.9923 52.6678C90.9164 53.56 92.0973 53.9926 93.5092 53.9926Z" fill="white"/>
</svg>
