<svg width="129" height="47" viewBox="0 0 129 47" fill="none" xmlns="http://www.w3.org/2000/svg">
<path fill-rule="evenodd" clip-rule="evenodd" d="M20.3489 2.2488C10.3365 2.2488 2.21989 10.4712 2.21989 20.614C2.21989 21.1681 2.24411 21.7165 2.29154 22.2581C2.41606 22.2361 2.54193 22.2192 2.6659 22.2061C3.1889 22.1504 3.80769 22.1475 4.4245 22.1702C5.16631 22.1974 5.95526 22.2638 6.65966 22.3402L6.65966 20.614C6.65966 18.7929 7.01374 16.9896 7.70169 15.3071C8.38964 13.6246 9.39799 12.0959 10.6692 10.8081C11.9403 9.52042 13.4494 8.49893 15.1103 7.80202C16.7711 7.10511 18.5512 6.74641 20.3489 6.74641C22.1467 6.74641 23.9268 7.10511 25.5876 7.80202C27.2485 8.49893 28.7576 9.52041 30.0287 10.8081C31.2999 12.0959 32.3083 13.6246 32.9962 15.3071C33.6842 16.9896 34.0382 18.7929 34.0382 20.614L34.0382 22.2641C35.3494 22.0398 37.0968 21.7903 38.4442 21.7455C38.4666 21.3713 38.478 20.994 38.478 20.614C38.478 10.4712 30.3614 2.2488 20.3489 2.2488ZM38.1689 24.0088C36.5051 24.1047 34.2218 24.497 33.146 24.715C29.4733 25.4591 26.735 28.0076 24.794 31.0284C24.0519 32.1835 23.4385 33.3898 22.9445 34.5574C23.8615 33.7155 24.8988 32.8912 26.0357 32.1359C28.974 30.1838 32.6507 28.6441 36.728 28.4964C37.3887 27.0899 37.8782 25.5848 38.1689 24.0088ZM35.3975 30.8586C32.3689 31.2413 29.5873 32.4656 27.2531 34.0164C24.9483 35.5476 23.1327 37.3621 21.9887 38.9051C27.5735 38.3979 32.4288 35.3251 35.3975 30.8586ZM5.28675 30.8381C11.9123 31.5504 16.6909 35.7572 18.7892 38.9122C13.1622 38.4265 8.26842 35.337 5.28675 30.8381ZM3.96911 28.4947C9.78947 28.6737 14.4575 31.2771 17.5959 34.1606C17.1304 33.0981 16.5681 32.0121 15.9023 30.9697C13.9639 27.9351 11.2382 25.4017 7.59146 24.7225C6.75268 24.6018 5.47377 24.459 4.34404 24.4175C3.77075 24.3965 3.27035 24.4029 2.89769 24.4426C2.78277 24.4548 2.69201 24.469 2.62288 24.4829C2.91995 25.8864 3.3753 27.2303 3.96911 28.4947ZM2.61172 24.4298C2.61924 24.4229 2.62694 24.4154 2.63475 24.4075L2.59977 24.3721L2.61172 24.4298ZM4.81379e-10 20.614C2.15521e-10 9.22922 9.11053 2.12846e-10 20.3489 4.75405e-10C31.5874 7.37964e-10 40.6979 9.22922 40.6979 20.614C40.6979 31.9988 31.5874 41.2281 20.3489 41.2281C9.11053 41.2281 7.47237e-10 31.9988 4.81379e-10 20.614ZM63.9625 7.67998C63.9625 5.81299 62.4685 4.2995 60.6255 4.2995L60.6255 5.55848C59.7984 4.60136 58.6504 4.12281 57.1815 4.12281C56.0977 4.12281 55.1137 4.37313 54.2296 4.87377C53.3597 5.37442 52.6752 6.08857 52.176 7.01624C51.6769 7.9439 51.4273 9.01882 51.4273 10.241C51.4273 11.4631 51.6769 12.5381 52.176 13.4657C52.6752 14.3934 53.3597 15.1075 54.2296 15.6082C55.1137 16.1088 56.0977 16.3592 57.1815 16.3592C58.7502 16.3592 59.9481 15.8438 60.7752 14.813L60.7752 16.1825L63.9625 16.1825L63.9625 7.67998ZM59.8554 12.6485C59.2993 13.2375 58.6005 13.532 57.7591 13.532C56.9035 13.532 56.1975 13.2375 55.6414 12.6485C55.0852 12.0448 54.8071 11.2423 54.8071 10.241C54.8071 9.23969 55.0852 8.44455 55.6414 7.85556C56.1975 7.25184 56.9035 6.94998 57.7591 6.94998C58.6005 6.94998 59.2993 7.25184 59.8554 7.85556C60.4116 8.44455 60.6897 9.23969 60.6897 10.241C60.6897 11.2423 60.4116 12.0448 59.8554 12.6485ZM74.0469 4.12281C75.4729 4.12281 76.6209 4.56455 77.4908 5.44804C78.375 6.33153 78.8171 7.64204 78.8171 9.37958L78.8171 16.1825L75.4801 16.1825L75.4801 9.90967C75.4801 8.96728 75.2804 8.26785 74.8811 7.81138C74.4818 7.34018 73.9042 7.10459 73.1484 7.10459C72.307 7.10459 71.6368 7.377 71.1377 7.92182C70.6385 8.45191 70.389 9.24705 70.389 10.3072L70.389 16.1825L67.052 16.1825L67.052 4.2995L68.8656 4.2995C69.6243 4.2995 70.2392 4.9225 70.2392 5.691C70.6813 5.19036 71.2304 4.80751 71.8864 4.54246C72.5424 4.26269 73.2625 4.12281 74.0469 4.12281ZM92.2808 5.44804C91.4109 4.56455 90.2629 4.12281 88.8368 4.12281C88.0525 4.12281 87.3323 4.26269 86.6763 4.54246C86.0203 4.80751 85.4713 5.19036 85.0292 5.691C85.0292 4.9225 84.4142 4.2995 83.6556 4.2995L81.8419 4.2995L81.8419 16.1825L85.1789 16.1825L85.1789 10.3072C85.1789 9.24705 85.4285 8.45191 85.9276 7.92182C86.4268 7.377 87.097 7.10459 87.9384 7.10459C88.6942 7.10459 89.2718 7.34018 89.6711 7.81138C90.0704 8.26785 90.27 8.96728 90.27 9.90967L90.27 16.1825L93.607 16.1825L93.607 9.37958C93.607 7.64204 93.1649 6.33153 92.2808 5.44804ZM108.311 7.67998C108.311 5.81299 106.817 4.2995 104.974 4.2995L104.974 5.55848C104.147 4.60136 102.999 4.12281 101.53 4.12281C100.447 4.12281 99.4626 4.37313 98.5784 4.87377C97.7085 5.37442 97.024 6.08857 96.5249 7.01624C96.0257 7.9439 95.7762 9.01882 95.7762 10.241C95.7762 11.4631 96.0257 12.5381 96.5249 13.4657C97.024 14.3934 97.7085 15.1075 98.5784 15.6082C99.4626 16.1088 100.447 16.3592 101.53 16.3592C103.099 16.3592 104.297 15.8438 105.124 14.813L105.124 16.1825L108.311 16.1825L108.311 7.67998ZM104.204 12.6485C103.648 13.2375 102.949 13.532 102.108 13.532C101.252 13.532 100.546 13.2375 99.9902 12.6485C99.4341 12.0448 99.156 11.2423 99.156 10.241C99.156 9.23969 99.4341 8.44455 99.9902 7.85556C100.546 7.25184 101.252 6.94998 102.108 6.94998C102.949 6.94998 103.648 7.25184 104.204 7.85556C104.76 8.44455 105.039 9.23969 105.039 10.241C105.039 11.2423 104.76 12.0448 104.204 12.6485ZM19.239 16.7669C17.695 13.8586 16.9826 11.1721 16.7372 9.58634C17.549 9.31347 18.3882 9.13355 19.239 9.04975L19.239 16.7669ZM21.4589 17.317L21.4589 9.04975C22.3179 9.13435 23.165 9.31694 23.9841 9.59424C23.8532 10.7209 23.551 12.2744 22.9915 13.9218C22.6033 15.0647 22.0994 16.229 21.4589 17.317ZM25.0906 14.6534C25.596 13.1654 25.9146 11.7373 26.0943 10.5581C26.7146 10.9218 27.3004 11.3439 27.8437 11.819C27.0982 13.0876 25.9996 14.7228 24.7385 16.1732C24.5933 16.3403 24.4466 16.5041 24.2987 16.6639C24.605 15.9876 24.8672 15.3113 25.0906 14.6534ZM26.4044 17.6596C27.5951 16.29 28.6428 14.7829 29.4254 13.5108C29.898 14.1306 30.308 14.7978 30.6487 15.5022C29.6666 16.4364 27.9141 17.6997 25.5871 18.5519C25.8677 18.262 26.1406 17.963 26.4044 17.6596ZM21.4589 21.7027C25.937 21.4138 29.4432 19.4283 31.4669 17.7597C31.6998 18.6907 31.8184 19.6494 31.8184 20.614L31.8184 22.7236C27.8165 23.8334 24.9178 26.7134 22.9335 29.8017C22.3769 30.6679 21.8866 31.5589 21.4589 32.4451L21.4589 21.7027ZM19.239 21.7027L19.239 32.4064C18.8118 31.5147 18.322 30.6184 17.766 29.748C15.7853 26.647 12.8865 23.7596 8.87954 22.7092L8.87954 20.614C8.87954 19.6494 8.99813 18.6907 9.23101 17.7597C11.2547 19.4283 14.7609 21.4139 19.239 21.7027ZM15.7078 18.7571C13.0829 17.9137 11.1136 16.5146 10.0492 15.5022C10.3882 14.8013 10.7957 14.1374 11.2653 13.5203C12.2132 15.0234 13.718 16.9873 15.7078 18.7571ZM16.6708 16.606C14.8921 14.9173 13.5829 13.0935 12.8429 11.8289C13.4023 11.3384 14.007 10.9042 14.6482 10.5321C14.9492 12.1072 15.5692 14.2625 16.6708 16.606ZM124.38 24.6531C125.761 24.6531 126.873 25.0729 127.715 25.9124C128.572 26.752 129 27.9973 129 29.6484L129 36.113L125.768 36.113L125.768 30.1522C125.768 29.2566 125.574 28.592 125.188 28.1582C124.801 27.7105 124.242 27.4866 123.509 27.4866C122.695 27.4866 122.045 27.7454 121.562 28.2632C121.078 28.7669 120.837 29.5225 120.837 30.53L120.837 36.113L117.605 36.113L117.605 24.821L119.386 24.821C120.107 24.821 120.692 25.413 120.692 26.1433C121.12 25.6675 121.652 25.3037 122.287 25.0519C122.922 24.786 123.62 24.6531 124.38 24.6531ZM111.682 33.4054C111.24 33.5733 110.729 33.6573 110.149 33.6573C109.417 33.6573 108.795 33.5174 108.284 33.2375C107.787 32.9577 107.421 32.5379 107.186 31.9782L115.432 30.362C115.432 29.1867 115.17 28.1722 114.645 27.3187C114.134 26.4511 113.443 25.7935 112.573 25.3457C111.703 24.884 110.736 24.6531 109.672 24.6531C108.54 24.6531 107.517 24.905 106.606 25.4087C105.708 25.8984 104.997 26.5911 104.472 27.4866C103.961 28.3681 103.705 29.3616 103.705 30.467C103.705 31.5864 103.968 32.5869 104.492 33.4684C105.017 34.3499 105.763 35.0426 106.73 35.5463C107.697 36.036 108.809 36.2809 110.066 36.2809C112.082 36.2809 113.616 35.6722 114.665 34.4549L112.946 32.5659C112.559 32.9437 112.138 33.2235 111.682 33.4054ZM107.683 27.9273C108.194 27.3956 108.857 27.1298 109.672 27.1298C110.335 27.1298 110.901 27.3047 111.371 27.6545C111.841 28.0043 112.152 28.4731 112.303 29.0607L106.875 30.1312C106.903 29.1937 107.172 28.4591 107.683 27.9273ZM98.3103 17.5409C100.095 17.5409 101.542 19.0068 101.542 20.8151L101.542 36.113L98.4553 36.113L98.4553 34.8117C97.6542 35.7912 96.4939 36.2809 94.9745 36.2809C93.9248 36.2809 92.9717 36.043 92.1153 35.5673C91.2727 35.0915 90.6097 34.4129 90.1263 33.5314C89.6428 32.6498 89.4011 31.6284 89.4011 30.467C89.4011 29.3056 89.6428 28.2842 90.1263 27.4026C90.6097 26.5211 91.2727 25.8425 92.1153 25.3667C92.9717 24.891 93.9248 24.6531 94.9745 24.6531C96.3972 24.6531 97.5091 25.1078 98.3103 26.0174L98.3103 17.5409ZM95.5339 33.5943C96.3489 33.5943 97.0257 33.3145 97.5644 32.7548C98.1031 32.1811 98.3724 31.4185 98.3724 30.467C98.3724 29.5155 98.1031 28.7599 97.5644 28.2002C97.0257 27.6265 96.3489 27.3397 95.5339 27.3397C94.7052 27.3397 94.0214 27.6265 93.4827 28.2002C92.944 28.7599 92.6747 29.5155 92.6747 30.467C92.6747 31.4185 92.944 32.1811 93.4827 32.7548C94.0214 33.3145 94.7052 33.5943 95.5339 33.5943ZM85.7449 25.0729C85.0957 25.3527 84.5777 25.7655 84.191 26.3112L84.191 24.821L81.1038 24.821L81.1038 36.113L84.336 36.113L84.336 30.7818C84.336 29.7324 84.5984 28.9488 85.1233 28.4311C85.6482 27.8994 86.3734 27.6335 87.2988 27.6335C87.4231 27.6335 87.6648 27.6475 88.024 27.6755L88.024 24.6531C87.1676 24.6531 86.4079 24.793 85.7449 25.0729ZM75.2231 24.821C77.0081 24.821 78.4552 26.2869 78.4552 28.0953L78.4552 36.113L75.3681 36.113L75.3681 34.8117C74.567 35.7912 73.4067 36.2809 71.8873 36.2809C70.8375 36.2809 69.8845 36.043 69.0281 35.5673C68.1855 35.0915 67.5225 34.4129 67.0391 33.5314C66.5556 32.6498 66.3139 31.6284 66.3139 30.467C66.3139 29.3056 66.5556 28.2842 67.0391 27.4026C67.5225 26.5211 68.1855 25.8425 69.0281 25.3667C69.8845 24.891 70.8375 24.6531 71.8873 24.6531C73.31 24.6531 74.4219 25.1078 75.2231 26.0174L75.2231 24.821ZM72.4467 33.5943C73.2617 33.5943 73.9385 33.3145 74.4772 32.7548C75.0159 32.1811 75.2852 31.4185 75.2852 30.467C75.2852 29.5155 75.0159 28.7599 74.4772 28.2002C73.9385 27.6265 73.2617 27.3397 72.4467 27.3397C71.618 27.3397 70.9342 27.6265 70.3955 28.2002C69.8568 28.7599 69.5875 29.5155 69.5875 30.467C69.5875 31.4185 69.8568 32.1811 70.3955 32.7548C70.9342 33.3145 71.618 33.5943 72.4467 33.5943ZM64.0067 28.0064L64.0067 39.4761C64.0067 41.9172 63.8166 42.9371 63.4204 43.4554C63.1035 43.9403 62.7233 44.4084 62.2954 44.8097C61.5666 45.4952 60.6951 46.047 59.7285 46.4315C58.762 46.8161 57.7479 47 56.7021 47C55.6564 47 54.6264 46.8161 53.6599 46.4315C52.7092 46.047 51.8377 45.4952 51.093 44.8097C50.3641 44.1075 49.7779 43.2715 49.3818 42.3686C49.2708 42.1011 49.2075 41.8336 49.2075 41.5661C49.2075 40.4124 50.3166 39.4761 51.5842 39.4761L52.7409 39.4761C52.7409 39.8607 52.8201 40.2452 52.9786 40.6131C53.137 40.9976 53.3905 41.3655 53.7391 41.6998C54.1036 42.0342 54.5314 42.3185 55.0543 42.5191C55.5613 42.7197 56.1317 42.8201 56.7021 42.8201C57.2726 42.8201 57.8271 42.7197 58.35 42.5191C58.8571 42.3185 59.3007 42.0342 59.6493 41.6998C59.9979 41.3655 60.2514 40.9976 60.4257 40.6131C60.5842 40.2452 60.6634 39.8607 60.6634 39.4761L60.6634 34.7612C59.8078 35.7811 58.6035 36.2827 57.0507 36.2827C56.005 36.2827 55.0543 36.0486 54.1669 35.5637C53.3113 35.0621 52.6141 34.3599 52.1071 33.4737C51.6001 32.5876 51.3465 31.5677 51.3465 30.3973C51.3465 29.2269 51.6001 28.207 52.1071 27.3209C52.6141 26.418 53.3113 25.7325 54.1669 25.2476C55.0543 24.7628 56.005 24.512 57.0507 24.512C58.7145 24.512 59.9662 25.0972 60.8377 26.2508L60.8377 24.6959C62.5648 24.6959 63.975 26.1672 64.0067 28.0064ZM57.7162 33.3901C58.5877 33.3901 59.3007 33.1226 59.8553 32.5709C60.4257 32.0191 60.7109 31.2835 60.7109 30.3973C60.7109 29.5112 60.4257 28.7922 59.8553 28.2405C59.3007 27.6887 58.5877 27.4045 57.7162 27.4045C56.8447 27.4045 56.1159 27.6887 55.5455 28.2405C54.9909 28.7922 54.7057 29.5112 54.7057 30.3973C54.7057 31.2835 54.9909 32.0191 55.5455 32.5709C56.1159 33.1226 56.8447 33.3901 57.7162 33.3901Z" fill="#E85300"/>
</svg>
