<svg width="69" height="42" viewBox="0 0 69 42" fill="none" xmlns="http://www.w3.org/2000/svg">
<rect x="0.5" y="0.5" width="68" height="41" rx="20.5" stroke="#FF8D4E"/>
<path d="M17.316 26V16.2H18.814L24.96 23.746H24.218V16.2H26.024V26H24.526L18.38 18.454H19.122V26H17.316ZM30.33 20.274H35.202V21.772H30.33V20.274ZM30.47 24.474H36V26H28.65V16.2H35.804V17.726H30.47V24.474ZM40.2022 26L36.9542 16.2H38.8442L41.7422 25.062H40.8042L43.8142 16.2H45.4942L48.4202 25.062H47.5102L50.4782 16.2H52.2142L48.9662 26H47.0342L44.3602 18.006H44.8642L42.1482 26H40.2022Z" fill="#FF8D4E"/>
</svg>
