<svg width="64" height="64" viewBox="0 0 64 64" fill="none" xmlns="http://www.w3.org/2000/svg">
<rect width="64" height="64" rx="32" fill="#E85300"/>
<path d="M27.12 46C27.0667 46 27.04 45.92 27.04 45.76C27.04 45.6 27.0667 45.52 27.12 45.52C28.24 45.52 29.1067 45.4533 29.72 45.32C30.3333 45.1867 30.7733 44.92 31.04 44.52C31.3067 44.12 31.44 43.5333 31.44 42.76V27.84C31.44 26.0533 31.0133 25.16 30.16 25.16C29.8133 25.16 29.3867 25.2933 28.88 25.56C28.3733 25.8 27.7733 26.16 27.08 26.64C27 26.6933 26.9067 26.6533 26.8 26.52C26.72 26.3867 26.72 26.3067 26.8 26.28L34.48 20.72C34.5867 20.6667 34.68 20.64 34.76 20.64C34.92 20.64 35 20.72 35 20.88V42.76C35 43.5333 35.1067 44.12 35.32 44.52C35.56 44.92 36 45.1867 36.64 45.32C37.28 45.4533 38.1733 45.52 39.32 45.52C39.4 45.52 39.44 45.6 39.44 45.76C39.44 45.92 39.4 46 39.32 46C38.52 46 37.5867 45.9867 36.52 45.96C35.4533 45.9333 34.3467 45.92 33.2 45.92C32.1067 45.92 31.0133 45.9333 29.92 45.96C28.8533 45.9867 27.92 46 27.12 46Z" fill="white"/>
</svg>
