<svg width="64" height="64" viewBox="0 0 64 64" fill="none" xmlns="http://www.w3.org/2000/svg">
<rect width="64" height="64" rx="32" fill="#E85300"/>
<path d="M23.56 46C23.4533 46 23.32 45.88 23.16 45.64C23.0267 45.3733 23.0133 45.1867 23.12 45.08C24.6667 43.1333 26.0533 41.3733 27.28 39.8C28.5333 38.2267 29.5867 36.7733 30.44 35.44C31.32 34.08 31.9867 32.7867 32.44 31.56C32.8933 30.3333 33.12 29.0933 33.12 27.84C33.12 26.0267 32.72 24.7333 31.92 23.96C31.12 23.1867 30.08 22.8 28.8 22.8C27.52 22.8 26.4533 23.1467 25.6 23.84C24.7467 24.5067 24.16 25.44 23.84 26.64C23.8133 26.6933 23.72 26.7067 23.56 26.68C23.4267 26.6533 23.3733 26.6 23.4 26.52C23.72 24.68 24.52 23.2267 25.8 22.16C27.1067 21.0933 28.72 20.56 30.64 20.56C32.6667 20.56 34.2133 21.1333 35.28 22.28C36.3467 23.4267 36.88 24.8933 36.88 26.68C36.88 27.96 36.6267 29.2 36.12 30.4C35.6133 31.6 34.9467 32.76 34.12 33.88C33.32 34.9733 32.4533 36.0267 31.52 37.04C30.5867 38.0533 29.68 39.0267 28.8 39.96C27.9467 40.8667 27.2267 41.7067 26.64 42.48C26.5333 42.6667 26.6 42.76 26.84 42.76C28.9733 42.76 30.7067 42.7333 32.04 42.68C33.4 42.6267 34.44 42.5067 35.16 42.32C35.9067 42.1333 36.4133 41.8533 36.68 41.48C36.9467 41.1067 37.0933 40.6 37.12 39.96C37.12 39.88 37.1867 39.84 37.32 39.84C37.48 39.84 37.56 39.88 37.56 39.96V45.56C37.56 45.6667 37.5333 45.7733 37.48 45.88C37.4267 45.96 37.3333 46 37.2 46C35.8667 46 34.4133 46 32.84 46C31.2667 46 29.68 46 28.08 46C26.48 46 24.9733 46 23.56 46Z" fill="white"/>
</svg>
