<svg width="64" height="64" viewBox="0 0 64 64" fill="none" xmlns="http://www.w3.org/2000/svg">
<rect width="64" height="64" rx="32" fill="#E85300"/>
<path d="M31.04 46.48C28.5067 46.48 26.32 45.48 24.48 43.48C24.4267 43.3733 24.4533 43.2667 24.56 43.16C24.6933 43.0533 24.8 43.0533 24.88 43.16C25.52 43.8 26.28 44.28 27.16 44.6C28.0667 44.8933 28.9067 45.04 29.68 45.04C30.96 45.04 31.9733 44.7867 32.72 44.28C33.4933 43.7467 34.04 43.0533 34.36 42.2C34.7067 41.32 34.88 40.36 34.88 39.32C34.88 38.2267 34.6933 37.2267 34.32 36.32C33.9467 35.4133 33.28 34.68 32.32 34.12C31.3867 33.56 30.0533 33.28 28.32 33.28C28.2133 33.28 28.1467 33.2 28.12 33.04C28.12 32.8533 28.1867 32.76 28.32 32.76C29.84 32.76 31.0133 32.5333 31.84 32.08C32.6933 31.6 33.28 30.96 33.6 30.16C33.9467 29.36 34.12 28.44 34.12 27.4C34.12 25.64 33.7467 24.3867 33 23.64C32.2533 22.8667 31.28 22.48 30.08 22.48C29.0933 22.48 28.1067 22.7333 27.12 23.24C26.1333 23.72 25.4 24.4933 24.92 25.56C24.8933 25.64 24.8 25.6533 24.64 25.6C24.48 25.52 24.4133 25.4533 24.44 25.4C25.0267 23.9333 25.9467 22.76 27.2 21.88C28.48 21 29.96 20.56 31.64 20.56C32.8933 20.56 33.9867 20.8 34.92 21.28C35.8533 21.76 36.5733 22.4267 37.08 23.28C37.5867 24.1067 37.84 25.0533 37.84 26.12C37.84 27.1867 37.5867 28.2133 37.08 29.2C36.6 30.16 35.88 30.9867 34.92 31.68C33.9867 32.3733 32.8667 32.8533 31.56 33.12L31.64 32.8C33.2133 32.6667 34.52 32.8933 35.56 33.48C36.6267 34.0667 37.4267 34.8533 37.96 35.84C38.52 36.8267 38.8 37.88 38.8 39C38.8 40.4933 38.4667 41.8 37.8 42.92C37.16 44.04 36.2533 44.92 35.08 45.56C33.9333 46.1733 32.5867 46.48 31.04 46.48Z" fill="white"/>
</svg>
