<svg width="64" height="64" viewBox="0 0 64 64" fill="none" xmlns="http://www.w3.org/2000/svg">
<rect width="64" height="64" rx="32" fill="#E85300"/>
<path d="M35 42.76C35 43.5333 35.0533 44.12 35.16 44.52C35.2933 44.92 35.5467 45.1867 35.92 45.32C36.2933 45.4533 36.8533 45.52 37.6 45.52C37.6533 45.52 37.68 45.6 37.68 45.76C37.68 45.92 37.6533 46 37.6 46C37.0133 46 36.3467 45.9867 35.6 45.96C34.8533 45.9333 34.04 45.92 33.16 45.92C32.12 45.92 31.1467 45.9333 30.24 45.96C29.36 45.9867 28.5467 46 27.8 46C27.7467 46 27.72 45.92 27.72 45.76C27.72 45.6 27.7467 45.52 27.8 45.52C28.8933 45.52 29.6933 45.4667 30.2 45.36C30.7067 45.2533 31.0267 45 31.16 44.6C31.32 44.2 31.4 43.5867 31.4 42.76V25.68L32.96 24.48L23.88 37.2C23.72 37.3867 23.7867 37.48 24.08 37.48C26.08 37.48 27.8133 37.48 29.28 37.48C30.7733 37.4533 32.1733 37.4267 33.48 37.4C34.8133 37.3467 36.2267 37.2933 37.72 37.24C37.8 37.24 37.84 37.3867 37.84 37.68C37.8667 37.9467 37.8667 38.2267 37.84 38.52C37.84 38.7867 37.8 38.92 37.72 38.92C36.3333 38.84 34.8933 38.7867 33.4 38.76C31.9067 38.7067 30.24 38.68 28.4 38.68C26.56 38.6533 24.3867 38.64 21.88 38.64C21.7733 38.64 21.68 38.6 21.6 38.52C21.52 38.4133 21.52 38.3067 21.6 38.2L34.4 20.8C34.4533 20.72 34.56 20.6933 34.72 20.72C34.9067 20.7467 35 20.8267 35 20.96V42.76Z" fill="white"/>
</svg>
