<svg width="67" height="42" viewBox="0 0 67 42" fill="none" xmlns="http://www.w3.org/2000/svg">
<rect x="0.5" y="0.5" width="66" height="41" rx="20.5" stroke="#870808"/>
<path d="M16.77 22.836V21.38H20.62V22.836H16.77ZM21.6716 26V24.782L25.5636 21.086C25.8903 20.778 26.133 20.5073 26.2916 20.274C26.4503 20.0407 26.553 19.826 26.5996 19.63C26.6556 19.4247 26.6836 19.2333 26.6836 19.056C26.6836 18.608 26.5296 18.2627 26.2216 18.02C25.9136 17.768 25.461 17.642 24.8636 17.642C24.3876 17.642 23.9536 17.726 23.5616 17.894C23.179 18.062 22.8476 18.3187 22.5676 18.664L21.2936 17.684C21.6763 17.1707 22.1896 16.774 22.8336 16.494C23.487 16.2047 24.215 16.06 25.0176 16.06C25.727 16.06 26.343 16.1767 26.8656 16.41C27.3976 16.634 27.8036 16.956 28.0836 17.376C28.373 17.796 28.5176 18.2953 28.5176 18.874C28.5176 19.1913 28.4756 19.5087 28.3916 19.826C28.3076 20.134 28.149 20.4607 27.9156 20.806C27.6823 21.1513 27.3416 21.5387 26.8936 21.968L23.5476 25.146L23.1696 24.46H28.8956V26H21.6716ZM34.0341 26.14C33.2594 26.14 32.5594 25.944 31.9341 25.552C31.3181 25.16 30.8327 24.5907 30.4781 23.844C30.1234 23.088 29.9461 22.1733 29.9461 21.1C29.9461 20.0267 30.1234 19.1167 30.4781 18.37C30.8327 17.614 31.3181 17.04 31.9341 16.648C32.5594 16.256 33.2594 16.06 34.0341 16.06C34.8181 16.06 35.5181 16.256 36.1341 16.648C36.7501 17.04 37.2354 17.614 37.5901 18.37C37.9541 19.1167 38.1361 20.0267 38.1361 21.1C38.1361 22.1733 37.9541 23.088 37.5901 23.844C37.2354 24.5907 36.7501 25.16 36.1341 25.552C35.5181 25.944 34.8181 26.14 34.0341 26.14ZM34.0341 24.558C34.4914 24.558 34.8881 24.4367 35.2241 24.194C35.5601 23.942 35.8214 23.5593 36.0081 23.046C36.2041 22.5327 36.3021 21.884 36.3021 21.1C36.3021 20.3067 36.2041 19.658 36.0081 19.154C35.8214 18.6407 35.5601 18.2627 35.2241 18.02C34.8881 17.768 34.4914 17.642 34.0341 17.642C33.5954 17.642 33.2034 17.768 32.8581 18.02C32.5221 18.2627 32.2561 18.6407 32.0601 19.154C31.8734 19.658 31.7801 20.3067 31.7801 21.1C31.7801 21.884 31.8734 22.5327 32.0601 23.046C32.2561 23.5593 32.5221 23.942 32.8581 24.194C33.2034 24.4367 33.5954 24.558 34.0341 24.558ZM40.738 26L47.43 16.2H48.802L42.11 26H40.738ZM41.55 21.478C41.0927 21.478 40.6867 21.366 40.332 21.142C39.9773 20.918 39.702 20.6053 39.506 20.204C39.31 19.8027 39.212 19.3313 39.212 18.79C39.212 18.2487 39.31 17.7773 39.506 17.376C39.702 16.9747 39.9773 16.662 40.332 16.438C40.6867 16.214 41.0927 16.102 41.55 16.102C42.026 16.102 42.4367 16.214 42.782 16.438C43.1367 16.662 43.412 16.9747 43.608 17.376C43.804 17.7773 43.902 18.2487 43.902 18.79C43.902 19.3313 43.804 19.8027 43.608 20.204C43.412 20.6053 43.1367 20.918 42.782 21.142C42.4367 21.366 42.026 21.478 41.55 21.478ZM41.564 20.498C41.9373 20.498 42.2267 20.3533 42.432 20.064C42.6467 19.7653 42.754 19.3407 42.754 18.79C42.754 18.2393 42.6467 17.8193 42.432 17.53C42.2267 17.2313 41.9373 17.082 41.564 17.082C41.1907 17.082 40.892 17.2313 40.668 17.53C40.4533 17.8287 40.346 18.2487 40.346 18.79C40.346 19.3313 40.4533 19.7513 40.668 20.05C40.892 20.3487 41.1907 20.498 41.564 20.498ZM47.976 26.098C47.5187 26.098 47.1127 25.986 46.758 25.762C46.4033 25.538 46.128 25.2253 45.932 24.824C45.736 24.4227 45.638 23.9513 45.638 23.41C45.638 22.8687 45.736 22.3973 45.932 21.996C46.128 21.5947 46.4033 21.282 46.758 21.058C47.1127 20.834 47.5187 20.722 47.976 20.722C48.452 20.722 48.8627 20.834 49.208 21.058C49.5627 21.282 49.838 21.5947 50.034 21.996C50.23 22.3973 50.328 22.8687 50.328 23.41C50.328 23.9513 50.23 24.4227 50.034 24.824C49.838 25.2253 49.5627 25.538 49.208 25.762C48.8627 25.986 48.452 26.098 47.976 26.098ZM47.976 25.118C48.3493 25.118 48.6433 24.9687 48.858 24.67C49.0727 24.3713 49.18 23.9513 49.18 23.41C49.18 22.8687 49.0727 22.4487 48.858 22.15C48.6433 21.8513 48.3493 21.702 47.976 21.702C47.612 21.702 47.318 21.8513 47.094 22.15C46.8793 22.4393 46.772 22.8593 46.772 23.41C46.772 23.9607 46.8793 24.3853 47.094 24.684C47.318 24.9733 47.612 25.118 47.976 25.118Z" fill="#870808"/>
</svg>
