<svg width="95" height="95" viewBox="0 0 95 95" fill="none" xmlns="http://www.w3.org/2000/svg">
<path d="M21.7241 76.7241H15V70.8966H21.7241M21.7241 76.7241V83H28.8966V76.7241M21.7241 76.7241H28.8966M28.8966 76.7241H66.1034M66.1034 76.7241V83H72.3793V76.7241M66.1034 76.7241H72.3793M72.3793 76.7241H80V70.8966H73.0517M66.1034 70.8966H73.0517M66.1034 70.8966V56.5517M66.1034 70.8966H58.4828M28.8966 70.8966H21.7241M28.8966 70.8966V56.5517M28.8966 70.8966H36.9655M73.0517 70.8966V18H21.7241V70.8966M28.8966 56.5517V24.7241H47.5M28.8966 56.5517H32.931M32.931 56.5517C37.7874 51.6207 47.5 38.3517 47.5 24.7241M32.931 56.5517C34.2759 59.3908 36.9655 66.2345 36.9655 70.8966M47.5 24.7241H66.1034V56.5517M47.5 24.7241C48.023 31.4483 51.669 47.2276 62.069 56.5517M62.069 56.5517C62.7862 56.5517 65.0575 56.5517 66.1034 56.5517M62.069 56.5517C60.8736 59.3908 58.4828 66.2345 58.4828 70.8966M58.4828 70.8966H51.7586M36.9655 70.8966H42.7931M42.7931 70.8966L41.8966 57.8966H47.2759M42.7931 70.8966H51.7586M51.7586 70.8966L52.6552 57.8966H47.2759M47.2759 57.8966V52.9655M47.2759 52.9655C49.5172 52.6667 53.3724 52.069 50.8621 44.8966C50.8621 44.8966 49.069 46.2414 48.6207 46.6897L47.2759 43.1034L45.931 46.6897L43.6897 44.8966C42.3448 48.1839 41.1793 52.6069 47.2759 52.9655Z" stroke="#E85300" stroke-linecap="round" stroke-linejoin="round"/>
</svg>
