<svg width="32" height="32" viewBox="0 0 32 32" fill="none" xmlns="http://www.w3.org/2000/svg">
<rect width="32" height="32" rx="16" fill="#8F8080"/>
<path d="M16.7297 18.8895C15.7427 18.4247 15.2419 18.1107 14.2973 17.4459C13.3343 16.7683 12.7243 15.9509 12.3514 15.1523M16.7297 18.8895C17.7168 19.3543 18.386 19.5 18.6757 19.5C19.3243 19.5 20.6216 19.1919 20.6216 17.9595C19.8432 17.5486 18.6757 16.7613 18.1892 16.4189C17.5405 16.6966 17.2162 17.4459 16.7297 18.8895ZM12.3514 15.1523C11.8199 14.0143 11.7696 12.9143 11.8649 12.3108C12.027 11.6261 12.5459 10.4622 13.3243 11.2838C14.2973 12.3108 14.7838 13.3378 14.7838 13.3378C14.7838 13.3378 13.8108 15.4262 12.3514 15.1523ZM8.94595 19.8649L7 25L11.8649 23.4595C12.5135 23.8018 14.2973 24.4865 16.2432 24.4865C22.0811 24.4865 25 19.8649 25 14.7297C25 11.1351 22.5676 6 16.2432 6C9.91892 6 7.48649 11.6486 7.48649 14.2162C7.48649 16.2703 7.97297 18.8378 8.94595 19.8649Z" stroke="#1F0000" stroke-linejoin="round"/>
</svg>
