<svg width="95" height="95" viewBox="0 0 95 95" fill="none" xmlns="http://www.w3.org/2000/svg">
<circle cx="47.5" cy="48.5" r="26" stroke="#E85300"/>
<path d="M17.8529 30.6472C13.781 37.4092 12.143 45.3599 13.2106 53.1807C14.2782 61.0015 17.9872 68.2223 23.7224 73.6456C29.4576 79.0688 36.8745 82.3686 44.7427 82.9975C52.6109 83.6264 60.4577 81.5467 66.9816 77.1033C73.5055 72.6599 78.3144 66.1199 80.6107 58.568C82.907 51.0161 82.5528 42.9061 79.6067 35.5832C76.6606 28.2603 71.2997 22.1645 64.4132 18.3069C57.5267 14.4493 49.5285 13.0618 41.7451 14.3744" stroke="#E85300" stroke-linecap="round" stroke-dasharray="2 4"/>
<path d="M21.754 16.3996C19.4763 18.2756 17.2645 20.106 15.8065 21.3157H12L15.8065 24.3806L24.6089 18.958L27.2258 26.7383L29.6048 25.3237V15.6573L36.2661 11.1778C35.2352 9.84175 32.4597 7.73558 29.6048 9.99893C28.9961 10.4815 28.1747 11.1442 27.2258 11.9157M21.754 16.3996L14.379 12.5924L15.8065 11.1778L27.2258 11.9157M21.754 16.3996C23.6675 14.8236 25.6274 13.2153 27.2258 11.9157M71 37.3478C67.3521 36.6405 59.5806 35.9803 57.6774 38.9981C56.7258 42.2988 60.5323 41.5916 60.5323 43.2419C60.5323 44.8923 58.8669 47.9572 62.4355 47.4857C66.004 47.0142 66.7177 47.9572 66.004 49.8433C65.2903 51.7295 67.1935 51.4937 69.0968 52.201C69.5726 54.0871 63.625 53.8514 64.8145 55.5017C66.004 57.1521 66.004 60.6886 64.8145 61.8674C63.625 63.0462 64.8145 65.6396 67.9073 65.6396M59.1048 25.3237C57.043 27.367 53.3952 31.7365 55.2984 32.8682C57.2016 33.9999 61.3253 33.6541 63.1492 33.3398C64.4973 33.0254 66.9556 31.9252 66.004 30.039M55.2984 23.4376C54.1882 25.3237 51.3968 28.8602 49.1129 27.9171C46.2581 26.7383 46.2581 24.3807 47.6855 23.4376M42.4516 23.4376C41.3414 24.8522 39.454 27.9171 40.7863 28.8602C42.4516 30.039 47.9234 33.104 44.3548 34.5186C40.7863 35.9332 40.0726 36.4047 38.1694 35.4616C36.2661 34.5186 36.2661 35.6974 36.2661 37.3478C36.2661 38.9981 34.125 36.6405 32.9355 37.8193C31.746 38.9981 31.2702 43.4777 36.2661 42.0631C41.2621 40.6485 42.4516 40.177 42.4516 43.2419C42.4516 46.3069 40.5484 51.0222 42.4516 49.8433C44.3548 48.6645 43.879 47.4857 47.6855 47.4857C51.4919 47.4857 54.3468 51.0222 53.1573 52.201C51.9677 53.3798 51.4919 55.5017 49.1129 55.5017C46.7339 55.5017 47.2097 57.1521 46.2581 59.5097C45.3065 61.8674 42.4516 60.217 42.4516 61.8674C42.4516 63.5178 41.5 64.6966 42.4516 66.5827C43.4032 68.4688 38.29 69.3923 37.2177 63.282C36.2661 57.8594 32.9355 57.8594 37.2177 55.5017C39.3589 54.3229 32.9355 53.1441 31.746 49.8433C30.5565 46.5426 32.9355 48.4288 31.746 45.8353C30.5565 43.2419 28.4153 45.128 25.7984 42.0631C23.7048 39.6111 22.8642 39.784 22.7056 40.177" stroke="#E85300"/>
</svg>
